<svg width="260.00013" height="41.655" xmlns="http://www.w3.org/2000/svg">

 <g>
  <title>background</title>
  <rect fill="none" id="canvas_background" height="602" width="802" y="-1" x="-1"/>
 </g>
 <g>
  <title>Layer 1</title>
  <path id="svg_1" fill="#ED1D24" d="m146.943,15.1065l0.057,-0.091l-0.061,0.091c-1.033,-0.709 -2.527,-1.038 -3.99,-1.038c-3.316,0.003 -5.686,1.643 -7.245,3.947c-1.55,2.311 -2.28,5.288 -2.28,7.938c0,1.915 0.288,3.701 1.455,5.313c0.575,0.787 1.969,2.678 6.475,2.684c3.129,-0.002 4.611,-0.813 5.414,-1.282l0.134,-0.181c0.157,-0.686 0.685,-3.801 0.9,-4.582l-0.162,-0.124c-1.582,1.254 -3.307,2.17 -5.266,2.17c-1.314,0 -2.313,-0.312 -2.987,-0.914c-0.672,-0.597 -1.001,-1.48 -1.001,-2.574c0,-0.403 0.033,-0.771 0.064,-1.174l0.01,-0.095l0.092,-0.003c3.063,-0.078 4.624,-0.12 7.189,-0.12c0.838,0 1.783,0.004 2.924,0.013l0.198,-0.138c0.255,-1.189 0.531,-2.549 0.531,-4.222c0,-1.485 -0.158,-4.125 -2.451,-5.618m-2.029,6.506l-0.017,0.087l-3.002,0.038l-2.968,0.039l0.027,-0.1l0.014,-0.044c0.06,-0.208 0.125,-0.437 0.2,-0.67c0.204,-0.654 0.496,-1.366 1.013,-2.019c0.091,-0.111 0.186,-0.225 0.287,-0.331c0.92,-1.006 1.791,-1.162 2.355,-1.162c0.795,0 1.377,0.318 1.751,0.791c0.063,0.083 0.116,0.164 0.168,0.257c0.185,0.315 0.298,0.673 0.339,1.048c0.02,0.134 0.027,0.275 0.027,0.41c0.001,0.562 -0.099,1.114 -0.194,1.656m-11.656,-3.38l-0.204,0.202l-2.956,-0.076l-1.369,6.446c-0.189,0.808 -0.607,2.825 -0.607,3.475c-0.004,0.607 0.225,1.021 0.545,1.267c0.316,0.249 0.712,0.331 1.066,0.332c0.822,0 1.109,-0.229 1.657,-0.438l0.097,0.09l-0.727,3.713l-0.25,0.243c-1.012,0.214 -1.765,0.39 -2.83,0.39c-2.75,-0.016 -4.735,-0.939 -4.746,-4.144c0,-1.5 0.606,-4.231 1.057,-6.261l1.091,-5.117l-2.321,0.079l-0.14,-0.202l0.679,-3.606l0.211,-0.116l2.358,0l0.943,-4.749l0.184,-0.208c2.361,-0.604 3.042,-0.895 5.193,-1.603l0.114,0.128l-0.713,3.059l-0.739,3.445l3.028,-0.093l0.079,0.158l-0.7,3.586zm36.454,-6.083l-0.163,0.181l-7.801,-0.019l-1.269,6.509l6.827,-0.206l0.101,0.162c-0.562,1.871 -0.692,2.4 -1.07,4.032l-0.173,0.165l-6.492,-0.014l-0.853,4.516l-1.08,5.865l-0.144,0.135l-5.591,0.144l-0.068,-0.144l0.969,-4.993l1.483,-7.049c1.118,-5.477 1.438,-7.226 2.495,-13.193l0.168,-0.164l8.169,0l5.188,-0.136l0.1,0.136l-0.796,4.073zm11.02,3.168c-1.085,-0.765 -2.817,-1.158 -5.193,-1.158c-1.173,0 -2.356,0.113 -3.544,0.338c-1.062,0.202 -1.721,0.373 -2.282,0.534l-0.154,0.156l-0.771,3.949l0.249,0.15c0.495,-0.228 1.221,-0.508 2.179,-0.847c0.98,-0.345 1.882,-0.518 2.696,-0.518c1.191,0 2.099,0.163 2.716,0.5c0.636,0.342 1.092,1.093 1.089,1.919c0,0.204 -0.017,0.383 -0.045,0.545c-0.031,0.152 -0.05,0.264 -0.058,0.328l-0.013,0.084s-0.385,0.027 -0.794,0.062c-0.27,0.026 -0.614,0.065 -1.012,0.111c-0.651,0.07 -1.4,0.162 -2.054,0.272c-1.568,0.261 -5.98,0.948 -7.304,3.903c-1.388,2.421 -1.151,5.633 0.212,7.196c0.481,0.553 1.214,1.073 2.205,1.273l-0.002,0.003c0.043,0.015 0.195,0.034 0.229,0.042c3.815,0.59 6.552,-2.734 6.552,-2.734l-0.409,2.049l0.168,0.144l4.286,-0.144l0.178,-0.155l2.523,-12.672c0.052,-0.267 0.095,-0.583 0.127,-0.942c0.028,-0.364 0.046,-0.659 0.046,-0.876c-0.003,-1.622 -0.737,-2.748 -1.82,-3.512m-4.413,12.67s-1.025,1.61 -2.501,2.187c-1.481,0.573 -2.55,0.121 -2.968,-0.452c-0.338,-0.448 -1.04,-1.862 0.293,-3.453c1.352,-1.607 5.82,-1.71 5.82,-1.71l-0.644,3.428zm20.809,-14.086l-1.05,5.45l-0.22,0.223c-0.3,-0.054 -0.682,-0.098 -1.134,-0.098c-1.415,0 -3.427,0.454 -5.001,2.54l-0.017,0.017l-2.168,11.309l-0.153,0.135l-4.708,0.143l-0.122,-0.124l3.703,-18.985l0.201,-0.199l4.66,-0.451l0.184,0.199l-0.537,2.75l0.229,-0.208c0.974,-0.883 1.838,-1.493 2.803,-2.043c0.956,-0.55 1.915,-0.823 2.879,-0.823c0.093,0 0.188,0 0.288,0.004l0.163,0.161zm25.205,4.777c0,1.147 -0.259,2.338 -0.513,3.497l-2.187,11.166l-0.168,0.135l-4.928,0.174l-0.122,-0.174s2.525,-12.334 2.525,-12.947c0,-0.559 -0.295,-2.057 -1.863,-2.057c-1.235,0 -2.512,1.247 -2.512,1.247l-2.661,13.623l-0.164,0.135l-2.121,0.074l-1.899,0.064l-0.938,0.031l-0.057,-0.077l-0.061,-0.093l0.853,-4.202l-0.013,0c0.736,-3.636 1.677,-8.371 1.677,-8.745c0,-0.559 -0.294,-2.057 -1.864,-2.057c-1.231,0 -2.508,1.247 -2.508,1.247l-2.662,13.623l-0.168,0.135l-0.761,0.026l-4.194,0.141l-0.107,-0.167l3.694,-18.966l0.186,-0.187l4.915,-0.463l0.199,0.199l-0.521,2.67s2.372,-2.6 5.396,-2.66c2.822,-0.053 3.412,2.66 3.412,2.66s2.808,-2.722 5.803,-2.66c1.515,0.012 4.324,0.68 4.332,4.608m-102.901,-3.361c-1.083,-0.765 -2.813,-1.158 -5.188,-1.158c-1.177,0 -2.358,0.113 -3.542,0.338c-1.064,0.202 -1.723,0.373 -2.286,0.534l-0.153,0.156l-0.771,3.949l0.249,0.15c0.495,-0.228 1.222,-0.508 2.178,-0.847c0.981,-0.345 1.882,-0.518 2.696,-0.518c1.192,0 2.094,0.163 2.718,0.5c0.633,0.342 1.086,1.093 1.086,1.919c0,0.204 -0.014,0.383 -0.042,0.545c-0.033,0.152 -0.051,0.264 -0.059,0.328l-0.012,0.084s-0.384,0.027 -0.793,0.062c-0.269,0.026 -0.617,0.065 -1.012,0.111c-0.652,0.07 -1.402,0.162 -2.053,0.272c-1.571,0.261 -5.981,0.948 -7.306,3.903c-1.388,2.421 -1.15,5.633 0.213,7.196c0.477,0.553 1.212,1.073 2.204,1.273l-0.002,0.003c0.042,0.015 0.195,0.034 0.227,0.042c3.817,0.59 6.554,-2.734 6.554,-2.734l-0.41,2.049l0.167,0.144l4.289,-0.144l0.177,-0.155l2.52,-12.672c0.055,-0.267 0.098,-0.583 0.133,-0.942c0.025,-0.364 0.044,-0.659 0.044,-0.876c-0.004,-1.622 -0.735,-2.748 -1.826,-3.512m-4.41,12.67s-1.022,1.61 -2.5,2.187c-1.48,0.573 -2.547,0.121 -2.97,-0.452c-0.335,-0.448 -1.036,-1.862 0.3,-3.453c1.347,-1.607 5.819,-1.71 5.819,-1.71l-0.649,3.428zm-10.331,-9.755l-0.206,0.202l-2.953,-0.076l-1.368,6.446c-0.192,0.808 -0.612,2.825 -0.612,3.475c-0.001,0.607 0.226,1.021 0.545,1.267c0.32,0.249 0.714,0.331 1.067,0.332c0.823,0 1.111,-0.229 1.657,-0.438l0.098,0.09l-0.726,3.713l-0.25,0.243c-1.008,0.214 -1.765,0.39 -2.832,0.39c-2.744,-0.016 -4.733,-0.939 -4.744,-4.144c0,-1.5 0.608,-4.231 1.057,-6.261l1.09,-5.117l-2.322,0.079l-0.14,-0.202l0.681,-3.606l0.21,-0.116l2.357,0l0.944,-4.749l0.185,-0.208c2.357,-0.604 3.04,-0.895 5.195,-1.603l0.11,0.128l-0.713,3.059l-0.733,3.447l3.022,-0.093l0.083,0.158l-0.702,3.584zm-11.102,-8.758l-0.898,4.624l-0.198,0.063c-0.357,-0.502 -0.573,-0.699 -1.07,-1.083c-1.104,-0.85 -2.414,-1.331 -3.751,-1.331c-1.048,0 -1.919,0.327 -2.523,0.872c-0.609,0.543 -0.955,1.316 -0.955,2.179c0.003,1.632 1.12,2.428 3.105,3.617l0.772,0.438c1.663,1.09 4.246,2.762 4.246,6.557c-0.006,4.313 -2.769,8.64 -9.398,8.65c-1.625,0 -3.216,-0.291 -4.747,-0.862c-1.033,-0.396 -1.531,-0.739 -2.156,-1.202l-0.052,-0.297l0.88,-4.511l0.197,-0.066c0.399,0.516 0.899,0.938 1.647,1.433c1.597,1.065 3.129,1.179 3.782,1.179c2.34,-0.002 4.18,-1.338 4.18,-3.413c-0.002,-1.858 -1.471,-2.789 -3.005,-3.693l-1.061,-0.654c-1.67,-1.092 -3.985,-2.577 -3.992,-6.3c0,-1.432 0.412,-3.487 1.68,-5.17c1.672,-2.213 4.301,-3.008 6.949,-3.008c3.409,0 5.359,1.207 6.273,1.792l0.095,0.186zm-47.936,8.145c1.343,0.829 3.23,1.356 5.354,1.356c2.121,0 4.026,-0.527 5.389,-1.356c1.368,-0.828 2.174,-1.946 2.177,-3.126c-0.003,-1.183 -0.804,-2.29 -2.166,-3.111c-1.358,-0.82 -3.258,-1.336 -5.385,-1.34c-2.123,0.004 -4.013,0.52 -5.362,1.34c-1.35,0.822 -2.143,1.925 -2.146,3.108c0.003,1.186 0.794,2.301 2.139,3.129m0.339,6.396c-1.358,-0.821 -3.259,-1.338 -5.382,-1.338c-2.125,0 -4.015,0.517 -5.363,1.334c-1.351,0.822 -2.144,1.921 -2.147,3.104c0.003,1.187 0.792,2.302 2.14,3.134c1.342,0.823 3.229,1.351 5.354,1.355c2.125,-0.005 4.03,-0.532 5.392,-1.359c1.365,-0.828 2.171,-1.943 2.175,-3.126c-0.005,-1.179 -0.807,-2.282 -2.169,-3.104m20.781,0c-1.36,-0.821 -3.262,-1.338 -5.386,-1.338c-2.123,0 -4.016,0.517 -5.361,1.334c-1.351,0.821 -2.142,1.921 -2.144,3.107c0.002,1.183 0.789,2.298 2.138,3.13c1.343,0.823 3.229,1.351 5.352,1.355c2.123,-0.005 4.03,-0.532 5.394,-1.359c1.365,-0.828 2.171,-1.943 2.173,-3.126c-0.002,-1.178 -0.804,-2.281 -2.166,-3.103m-5.409,-4.437c-0.96,0 -1.887,0.091 -2.768,0.256c1.925,-1.374 3.11,-3.265 3.11,-5.352c0,-4.199 -4.768,-7.54 -10.688,-7.54c-5.919,0.001 -10.638,3.342 -10.638,7.541c0,2.09 1.163,3.981 3.069,5.355c-0.898,-0.169 -1.84,-0.26 -2.812,-0.26c-5.919,0 -10.637,3.342 -10.637,7.537c0,4.192 4.693,7.597 10.614,7.597c5.039,0 9.263,-2.464 10.413,-5.784c1.121,3.32 5.272,5.784 10.312,5.784c5.92,0 10.715,-3.404 10.715,-7.597c0,-4.195 -4.773,-7.537 -10.69,-7.537m-19.054,-5.099c0.007,-1.891 1.443,-3.168 2.285,-3.763c1.684,-1.197 3.966,-1.842 6.424,-1.842c2.466,0 4.756,0.648 6.453,1.842c0.849,0.599 2.302,1.878 2.309,3.763c-0.028,3.152 -4.075,5.661 -8.788,5.668c-2.448,0 -4.72,-0.655 -6.397,-1.861c-1.461,-1.047 -2.286,-2.396 -2.286,-3.807m-1.696,18.3c-2.451,0 -4.721,-0.656 -6.403,-1.864c-1.454,-1.043 -2.281,-2.392 -2.281,-3.8c0.008,-1.891 1.443,-3.171 2.282,-3.767c1.686,-1.189 3.967,-1.838 6.426,-1.842c2.467,0.004 4.757,0.652 6.454,1.847c0.85,0.598 2.305,1.875 2.313,3.762c-0.029,3.148 -4.079,5.657 -8.791,5.664m10.416,-7.472c-0.464,-1.337 -1.428,-2.531 -2.743,-3.476c0.863,0.161 1.768,0.247 2.701,0.247c0.96,0 1.887,-0.09 2.771,-0.256c-1.311,0.946 -2.274,2.141 -2.729,3.485m10.308,7.472c-2.448,0 -4.72,-0.656 -6.4,-1.864c-1.457,-1.043 -2.286,-2.392 -2.286,-3.8c0.006,-1.891 1.446,-3.168 2.288,-3.767c1.682,-1.189 3.965,-1.838 6.423,-1.842c2.467,0.004 4.756,0.652 6.458,1.847c0.849,0.598 2.298,1.878 2.302,3.762c-0.023,3.148 -4.072,5.657 -8.785,5.664m168.662,-14.908c-0.014,1.674 -1.23,2.938 -2.821,2.924c-1.582,-0.013 -2.784,-1.296 -2.771,-2.97c0.014,-1.708 1.213,-2.946 2.836,-2.933c1.574,0.013 2.77,1.305 2.756,2.979m-5.225,-0.053c-0.012,1.433 1.066,2.607 2.406,2.618c1.339,0.012 2.44,-1.145 2.452,-2.585c0.006,-0.686 -0.249,-1.385 -0.679,-1.848c-0.42,-0.456 -1.087,-0.746 -1.694,-0.751c-1.417,-0.012 -2.472,1.085 -2.485,2.566m2.308,-1.646c0.354,0.004 0.519,0.021 0.721,0.09c0.35,0.12 0.573,0.455 0.57,0.833c-0.003,0.402 -0.255,0.719 -0.66,0.841l0.663,1.596l-0.469,-0.003l-0.614,-1.513l-0.032,-0.008l-0.296,-0.003l-0.316,-0.002l-0.05,0.008l-0.014,1.507l-0.426,-0.004l0.028,-3.349l0.895,0.007zm-0.038,1.49c0.413,0.004 0.571,-0.021 0.698,-0.119c0.131,-0.092 0.212,-0.259 0.213,-0.442c0.003,-0.242 -0.106,-0.419 -0.316,-0.495c-0.116,-0.054 -0.3,-0.07 -0.668,-0.074l-0.359,-0.002l-0.011,1.129l0.443,0.003z"/>
 </g>
</svg>