<?xml version="1.0" encoding="iso-8859-1"?>
<!-- Generator: Adobe Illustrator 18.0.0, SVG Export Plug-In . SVG Version: 6.00 Build 0)  -->
<!DOCTYPE svg PUBLIC "-//W3C//DTD SVG 1.1//EN" "http://www.w3.org/Graphics/SVG/1.1/DTD/svg11.dtd">
<svg version="1.1" id="Capa_1" xmlns="http://www.w3.org/2000/svg" xmlns:xlink="http://www.w3.org/1999/xlink" x="0px" y="0px"
	 viewBox="0 0 186.146 186.146" style="enable-background:new 0 0 186.146 186.146;" xml:space="preserve">
<g>
	<path style="fill:#FDD633;" d="M92.846,7.102c0-0.005,0-0.01,0-0.015C92.846,7.092,92.846,7.097,92.846,7.102z"/>
	<path style="fill:#FDD633;" d="M90.036,6.163c0.141-0.328,0.302-0.654,0.481-0.979C90.339,5.508,90.177,5.835,90.036,6.163z"/>
	<path style="fill:#FDD633;" d="M93.072,5.293C93.708,2.477,95.436,0,95.436,0c-0.891,0.61-1.676,1.248-2.363,1.905v3.38
		C93.072,5.288,93.072,5.291,93.072,5.293z"/>
	<path style="fill:#FDD633;" d="M92.176,2.845c0.279-0.316,0.574-0.631,0.896-0.94C92.75,2.214,92.456,2.528,92.176,2.845z"/>
	<path style="fill:#FDD633;" d="M90.629,4.987C90.807,4.675,91,4.365,91.215,4.058C91,4.365,90.807,4.675,90.629,4.987z"/>
	<path style="fill:#FDD633;" d="M91.545,16.619c0.452,0.574,0.961,1.113,1.522,1.61C92.506,17.732,91.996,17.193,91.545,16.619z"/>
	<path style="fill:#FDD633;" d="M91.254,4c0.228-0.321,0.481-0.639,0.749-0.955C91.734,3.36,91.481,3.678,91.254,4z"/>
	<path style="fill:#FDD633;" d="M92.915,6.17c-0.002,0.014-0.003,0.028-0.005,0.042C92.912,6.198,92.913,6.184,92.915,6.17z"/>
	<path style="fill:#FDD633;" d="M90.71,186.146c0,0,0.011-0.016,0.027-0.039C90.728,186.12,90.71,186.146,90.71,186.146z"/>
	<path style="fill:#FDD633;" d="M91.845,166.953c0.429,0.297,0.836,0.615,1.219,0.953C92.681,167.568,92.274,167.249,91.845,166.953
		z"/>
	<path style="fill:#FDD633;" d="M91.83,185.314c-0.355,0.281-0.724,0.561-1.121,0.832C91.106,185.874,91.475,185.595,91.83,185.314z
		"/>
	<path style="fill:#FDD633;" d="M93.068,177.257c0.343,1.157,0.277,2.41,0.005,3.607v3.376c-0.304,0.291-0.635,0.576-0.978,0.859
		c6.803-5.597,5.777-12.947,0.978-17.186v9.357C93.072,177.266,93.07,177.262,93.068,177.257z"/>
	<path style="fill:#FDD633;" d="M90.456,166.113c0.479,0.251,0.936,0.527,1.37,0.827C91.39,166.64,90.934,166.363,90.456,166.113z"
		/>
	<path style="fill:#FDD633;" d="M90.686,148.177c-0.182,0.212-0.361,0.424-0.553,0.632
		C90.326,148.601,90.503,148.389,90.686,148.177z"/>
	<path style="fill:#FDD633;" d="M89.37,8.36c0.061-0.331,0.14-0.663,0.236-0.995C89.51,7.698,89.431,8.029,89.37,8.36z"/>
	<path style="fill:#FDD633;" d="M91.51,16.573c-0.439-0.563-0.821-1.159-1.142-1.781C90.689,15.414,91.071,16.01,91.51,16.573z"/>
	<path style="fill:#FDD633;" d="M89.549,12.681c-0.173-0.646-0.281-1.308-0.321-1.981C89.268,11.373,89.376,12.035,89.549,12.681z"
		/>
	<path style="fill:#FDD633;" d="M90.785,186.035L90.785,186.035L90.785,186.035z"/>
	<path style="fill:#FDD633;" d="M90.325,14.707c-0.309-0.612-0.558-1.248-0.742-1.902C89.767,13.46,90.016,14.095,90.325,14.707z"/>
	<path style="fill:#FDD633;" d="M92.706,176.374c-0.065-0.125-0.133-0.249-0.21-0.37C92.574,176.126,92.64,176.249,92.706,176.374z"
		/>
	<path style="fill:#FDD633;" d="M92.31,175.735c-0.165-0.222-0.345-0.438-0.562-0.642C91.965,175.296,92.143,175.514,92.31,175.735z
		"/>
	<path style="fill:#FDD633;" d="M89.234,9.445c0.021-0.309,0.059-0.619,0.111-0.93C89.294,8.827,89.256,9.137,89.234,9.445z"/>
	<path style="fill:#FDD633;" d="M93.072,144.97c-0.225,0.357-0.469,0.711-0.715,1.064C92.605,145.68,92.847,145.327,93.072,144.97z"
		/>
	<path style="fill:#FDD633;" d="M92.001,146.535c-0.211,0.289-0.432,0.575-0.659,0.86C91.571,147.11,91.789,146.824,92.001,146.535z
		"/>
	<path style="fill:#FDD633;" d="M89.658,7.2c0.094-0.304,0.203-0.608,0.328-0.911C89.861,6.592,89.753,6.896,89.658,7.2z"/>
	<path style="fill:#FDD633;" d="M164.548,108.336c-4.741,6.145-9.624,8.825-15.949-1.058c-1.613-2.521-3.551-4.549-5.539-6.175
		c0.399-2.514,0.615-5.088,0.632-7.709c4.806,2.293,8.556,5.933,15.997,4.619c9.526-1.678,11.352-13.223,14.388-17.876
		c3.039-4.651,11.065-0.897,11.065-0.897c-8.127-8.296-17.202-4.074-19.685,3.729c-2.354,7.397-6.026,11.586-15.349,4.462
		c-2.38-1.819-4.896-3.063-7.322-3.91c-0.488-2.559-1.167-5.051-2.025-7.458c5.295,0.514,10.063,2.647,16.6-1.13
		c8.379-4.835,6.146-16.309,7.406-21.72c1.265-5.41,10.091-4.629,10.091-4.629c-10.474-5.016-17.558,2.057-17.222,10.238
		c0.318,7.756-1.7,12.947-12.897,9.441c-2.857-0.895-5.645-1.203-8.214-1.17c-1.331-2.22-2.822-4.33-4.466-6.313
		c5.154-1.331,10.366-0.954,15.22-6.742c6.22-7.409,0.197-17.427-0.469-22.943c-0.661-5.515,7.899-7.8,7.899-7.8
		c-11.558-1.132-15.796,7.938-12.682,15.511c2.952,7.179,2.831,12.748-8.891,13.282c-2.994,0.137-5.719,0.804-8.124,1.716
		c-1.996-1.626-4.122-3.098-6.354-4.408c4.39-3.014,9.417-4.441,12-11.542c3.311-9.089-5.775-16.443-8.287-21.399
		c-2.509-4.957,4.754-10.032,4.754-10.032c-11.247,2.889-12.128,12.861-6.611,18.913c5.229,5.737,7.021,11.012-3.813,15.523
		c-2.764,1.151-5.099,2.708-7.046,4.385c-2.415-0.837-4.914-1.494-7.481-1.961c3.095-4.335,7.332-7.396,7.332-14.955
		c0-9.671-11.053-13.472-15.107-17.272c-0.688-0.644-1.096-1.393-1.327-2.184l0,0v9.363c0.78,0.689,1.656,1.298,2.617,1.802
		c6.876,3.602,10.364,7.945,1.728,15.89c-2.208,2.032-3.871,4.296-5.128,6.544c0.241-0.432,0.511-0.863,0.783-1.292v10.437l0,0
		c22.898,0,41.462,18.563,41.462,41.459c0,22.9-18.563,41.463-41.462,41.463l0,0v10.433c0.271-0.429,0.541-0.858,0.781-1.288
		c2.618-0.039,5.186-0.276,7.693-0.699c-1.424,5.128-4.355,9.456-1.77,16.553c3.307,9.09,14.993,8.881,20.104,11.064
		c5.108,2.186,2.805,10.743,2.805,10.743c6.76-9.445,1.026-17.649-7.092-18.74c-7.692-1.031-12.455-3.921-7.058-14.341
		c1.376-2.657,2.164-5.346,2.577-7.882c2.426-0.925,4.762-2.034,6.992-3.307c0.416,5.308-0.86,10.376,3.997,16.16
		c6.217,7.413,17.127,3.22,22.676,3.523c5.549,0.307,6.311,9.135,6.311,9.135c3.121-11.187-5.072-16.936-13.072-15.183
		c-7.582,1.66-13.045,0.574-11.538-11.064c0.386-2.975,0.201-5.774-0.28-8.303c1.951-1.691,3.771-3.524,5.444-5.491
		c2.209,4.848,2.739,10.05,9.285,13.827c8.377,4.839,17.196-2.834,22.513-4.446c5.319-1.61,9.055,6.426,9.055,6.426
		c-0.893-11.579-10.56-14.179-17.477-9.798c-6.557,4.153-12.061,5.002-14.626-6.447c-0.654-2.923-1.78-5.487-3.096-7.697
		c1.252-2.239,2.342-4.582,3.245-7.016c3.726,3.796,6.008,8.492,13.44,9.8c9.525,1.683,15.189-8.543,19.634-11.877
		c4.448-3.331,10.706,2.94,10.706,2.94C179.521,100.988,169.55,101.852,164.548,108.336z"/>
	<path style="fill:#FDD633;" d="M89.219,10.548c-0.015-0.331-0.014-0.665,0.006-0.999C89.205,9.884,89.205,10.217,89.219,10.548z"/>
	<path style="fill:#F4CA19;" d="M93.073,8.871c-0.167-0.573-0.234-1.169-0.227-1.769c0-0.005,0-0.01,0-0.015
		c0.004-0.292,0.027-0.584,0.064-0.875c0.002-0.014,0.003-0.028,0.005-0.042c0.038-0.294,0.091-0.587,0.157-0.876
		c0-0.003,0.001-0.006,0.001-0.009v-3.38l0,0c0,0,0,0-0.001,0c-0.323,0.309-0.617,0.623-0.896,0.94
		c-0.059,0.066-0.117,0.133-0.174,0.2C91.734,3.36,91.481,3.678,91.254,4c-0.014,0.02-0.025,0.039-0.039,0.058
		C91,4.365,90.807,4.675,90.629,4.987c-0.037,0.065-0.076,0.131-0.112,0.196c-0.178,0.325-0.34,0.652-0.481,0.979
		c-0.018,0.042-0.033,0.084-0.05,0.127c-0.125,0.303-0.233,0.607-0.328,0.911c-0.017,0.055-0.036,0.11-0.052,0.165
		C89.51,7.698,89.431,8.029,89.37,8.36c-0.009,0.052-0.016,0.103-0.025,0.155c-0.052,0.311-0.09,0.621-0.111,0.93
		c-0.003,0.035-0.007,0.069-0.009,0.104c-0.02,0.335-0.021,0.668-0.006,0.999c0.002,0.051,0.006,0.101,0.009,0.152
		c0.04,0.672,0.148,1.335,0.321,1.981c0.011,0.042,0.023,0.083,0.034,0.124c0.184,0.654,0.433,1.29,0.742,1.902
		c0.014,0.028,0.028,0.057,0.043,0.085c0.321,0.622,0.703,1.218,1.142,1.781c0.012,0.015,0.023,0.03,0.035,0.045
		c0.452,0.574,0.961,1.113,1.522,1.61c0.002,0.002,0.004,0.004,0.006,0.006v0V8.871L93.073,8.871z"/>
	<path style="fill:#F4CA19;" d="M93.072,134.537c-22.898,0-41.461-18.563-41.461-41.463c0-22.896,18.562-41.459,41.461-41.459h0.001
		V41.178c-0.272,0.43-0.542,0.861-0.783,1.292c-2.618,0.04-5.186,0.277-7.692,0.699c1.423-5.131,4.358-9.457,1.775-16.559
		c-3.308-9.088-14.995-8.88-20.105-11.064c-5.11-2.184-2.806-10.742-2.806-10.742c-6.761,9.445-1.026,17.651,7.091,18.741
		c7.694,1.033,12.457,3.921,7.058,14.341c-1.377,2.657-2.164,5.349-2.578,7.884c-2.426,0.926-4.761,2.036-6.991,3.307
		C67.623,43.77,68.902,38.7,64.045,32.91c-6.218-7.409-17.128-3.215-22.677-3.52c-5.549-0.304-6.311-9.133-6.311-9.133
		c-3.122,11.187,5.073,16.937,13.073,15.185c7.583-1.662,13.046-0.577,11.538,11.062c-0.386,2.975-0.202,5.777,0.279,8.307
		c-1.95,1.689-3.77,3.522-5.442,5.488c-2.209-4.848-2.74-10.051-9.286-13.831c-8.378-4.836-17.195,2.837-22.514,4.448
		c-5.318,1.611-9.054-6.424-9.054-6.424c0.893,11.579,10.559,14.18,17.478,9.797c6.557-4.154,12.062-5.004,14.625,6.449
		c0.653,2.921,1.782,5.487,3.096,7.697c-1.251,2.239-2.341,4.581-3.245,7.016c-3.725-3.798-6.006-8.494-13.441-9.805
		c-9.526-1.68-15.188,8.546-19.634,11.881c-4.447,3.332-10.705-2.941-10.705-2.941c4.799,10.576,14.772,9.712,19.775,3.229
		c4.741-6.146,9.623-8.828,15.949,1.059c1.612,2.521,3.549,4.548,5.539,6.174c-0.4,2.513-0.616,5.086-0.632,7.709
		c-4.807-2.295-8.557-5.936-15.999-4.623c-9.526,1.679-11.349,13.225-14.387,17.878c-3.039,4.653-11.065,0.899-11.065,0.899
		c8.126,8.295,17.204,4.073,19.687-3.73c2.352-7.396,6.024-11.586,15.349-4.461c2.379,1.818,4.894,3.063,7.32,3.91
		c0.489,2.558,1.167,5.049,2.025,7.457c-5.294-0.515-10.062-2.647-16.6,1.128c-8.378,4.836-6.142,16.31-7.405,21.722
		c-1.265,5.411-10.091,4.629-10.091,4.629c10.475,5.017,17.56-2.056,17.224-10.237c-0.32-7.757,1.698-12.948,12.898-9.442
		c2.855,0.895,5.641,1.202,8.209,1.171c1.33,2.218,2.822,4.33,4.465,6.313c-5.153,1.328-10.364,0.954-15.219,6.74
		c-6.219,7.409-0.194,17.426,0.471,22.942c0.662,5.518-7.9,7.8-7.9,7.8c11.558,1.133,15.798-7.936,12.684-15.509
		c-2.953-7.18-2.832-12.749,8.891-13.284c2.991-0.137,5.715-0.802,8.119-1.713c1.996,1.626,4.121,3.098,6.353,4.408
		c-4.388,3.013-9.415,4.442-11.997,11.542c-3.31,9.088,5.777,16.439,8.289,21.398c2.509,4.957-4.756,10.032-4.756,10.032
		c11.249-2.89,12.131-12.86,6.614-18.913c-5.23-5.735-7.022-11.011,3.811-15.523c2.762-1.15,5.095-2.705,7.042-4.381
		c2.415,0.838,4.914,1.495,7.48,1.962c-3.093,4.333-7.329,7.396-7.326,14.949c-0.002,9.673,11.051,13.475,15.107,17.275
		c0.217,0.203,0.397,0.42,0.562,0.642c0.065,0.089,0.128,0.179,0.186,0.27c0.077,0.121,0.146,0.245,0.21,0.37
		c0.147,0.287,0.272,0.58,0.362,0.883c0.001,0.005,0.003,0.009,0.005,0.014v-9.357v-0.001c-0.003-0.003-0.006-0.005-0.009-0.007
		c-0.384-0.338-0.79-0.656-1.219-0.953c-0.006-0.004-0.013-0.009-0.019-0.013c-0.435-0.3-0.892-0.576-1.37-0.827
		c-6.876-3.604-10.363-7.946-1.728-15.893c0.499-0.459,0.962-0.932,1.405-1.411c0.192-0.208,0.371-0.42,0.553-0.632
		c0.224-0.259,0.446-0.518,0.656-0.782c0.227-0.285,0.448-0.571,0.659-0.86c0.122-0.166,0.24-0.333,0.356-0.5
		c0.246-0.354,0.49-0.708,0.715-1.064l0.001-0.001l0,0L93.072,134.537L93.072,134.537z"/>
	<path style="fill:#F4CA19;" d="M93.073,180.865L93.073,180.865c-0.559,2.459-1.948,4.656-2.288,5.169l0,0.001
		c-0.021,0.031-0.036,0.054-0.048,0.072c-0.016,0.023-0.027,0.039-0.027,0.039c0.397-0.271,0.765-0.551,1.121-0.832
		c0.089-0.071,0.178-0.143,0.265-0.214c0.343-0.283,0.674-0.568,0.978-0.859V180.865z"/>
	<path style="fill:#F2AB0C;" d="M134.535,93.074c0-22.896-18.563-41.459-41.462-41.459v82.922
		C115.971,134.537,134.535,115.974,134.535,93.074z"/>
	<path style="fill:#F4940B;" d="M51.612,93.074c0,22.9,18.562,41.463,41.461,41.463h0.001l0,0V51.615l0,0h-0.001
		C70.174,51.615,51.612,70.177,51.612,93.074z"/>
</g>
<g>
</g>
<g>
</g>
<g>
</g>
<g>
</g>
<g>
</g>
<g>
</g>
<g>
</g>
<g>
</g>
<g>
</g>
<g>
</g>
<g>
</g>
<g>
</g>
<g>
</g>
<g>
</g>
<g>
</g>
</svg>
