<svg data-v-fde0c5aa="" xmlns="http://www.w3.org/2000/svg" viewBox="0 0 300 300" class="iconAbove"><!----><defs data-v-fde0c5aa=""><!----></defs><rect data-v-fde0c5aa="" fill="#2e3336" x="0" y="0" width="300px" height="300px" class="logo-background-square"></rect><defs data-v-fde0c5aa=""><!----></defs><g data-v-fde0c5aa="" id="85d6e917-42f6-48de-a329-3af7fb2920fd" fill="#E3E6E2" transform="matrix(1.7314863722636356,0,0,1.7314863722636356,17.57591912011276,168.87812982807137)"><path d="M8.05 11.69L8.05 11.69Q8.16 11.89 8.16 12.01L8.16 12.01L8.16 12.01Q8.16 12.17 8.04 12.25L8.04 12.25L8.04 12.25Q7.92 12.33 7.70 12.33L7.70 12.33L7.70 12.33Q7.56 12.33 7.48 12.28L7.48 12.28L7.48 12.28Q7.39 12.22 7.32 12.11L7.32 12.11L4.75 7.99L4.49 7.99L2.24 7.99L2.24 11.91L2.24 11.91Q2.24 12.10 2.13 12.21L2.13 12.21L2.13 12.21Q2.02 12.33 1.82 12.33L1.82 12.33L1.82 12.33Q1.64 12.33 1.52 12.21L1.52 12.21L1.52 12.21Q1.40 12.10 1.40 11.91L1.40 11.91L1.40 1.82L1.40 1.82Q1.40 1.62 1.52 1.51L1.52 1.51L1.52 1.51Q1.64 1.40 1.82 1.40L1.82 1.40L4.49 1.40L4.49 1.40Q5.50 1.40 6.30 1.82L6.30 1.82L6.30 1.82Q7.10 2.24 7.55 3.00L7.55 3.00L7.55 3.00Q7.99 3.75 7.99 4.72L7.99 4.72L7.99 4.72Q7.99 5.87 7.36 6.70L7.36 6.70L7.36 6.70Q6.72 7.53 5.64 7.84L5.64 7.84L8.05 11.69ZM2.24 7.15L4.49 7.15L4.49 7.15Q5.26 7.15 5.87 6.85L5.87 6.85L5.87 6.85Q6.47 6.54 6.81 5.98L6.81 5.98L6.81 5.98Q7.15 5.42 7.15 4.72L7.15 4.72L7.15 4.72Q7.15 4.00 6.81 3.44L6.81 3.44L6.81 3.44Q6.47 2.87 5.87 2.55L5.87 2.55L5.87 2.55Q5.26 2.24 4.49 2.24L4.49 2.24L2.24 2.24L2.24 7.15ZM12.95 4.61L12.95 4.61Q13.97 4.61 14.78 5.09L14.78 5.09L14.78 5.09Q15.58 5.57 16.03 6.43L16.03 6.43L16.03 6.43Q16.48 7.28 16.48 8.37L16.48 8.37L16.48 8.37Q16.48 8.55 16.37 8.66L16.37 8.66L16.37 8.66Q16.25 8.76 16.07 8.76L16.07 8.76L10.21 8.76L10.21 8.76Q10.25 9.59 10.64 10.24L10.64 10.24L10.64 10.24Q11.03 10.89 11.69 11.26L11.69 11.26L11.69 11.26Q12.35 11.62 13.16 11.62L13.16 11.62L13.16 11.62Q13.71 11.62 14.26 11.43L14.26 11.43L14.26 11.43Q14.81 11.24 15.13 10.93L15.13 10.93L15.13 10.93Q15.27 10.82 15.43 10.82L15.43 10.82L15.43 10.82Q15.58 10.82 15.68 10.91L15.68 10.91L15.68 10.91Q15.83 11.03 15.83 11.20L15.83 11.20L15.83 11.20Q15.83 11.34 15.71 11.47L15.71 11.47L15.71 11.47Q15.26 11.87 14.54 12.14L14.54 12.14L14.54 12.14Q13.82 12.40 13.16 12.40L13.16 12.40L13.16 12.40Q12.05 12.40 11.19 11.91L11.19 11.91L11.19 11.91Q10.33 11.41 9.84 10.52L9.84 10.52L9.84 10.52Q9.35 9.63 9.35 8.51L9.35 8.51L9.35 8.51Q9.35 7.38 9.81 6.49L9.81 6.49L9.81 6.49Q10.26 5.60 11.08 5.10L11.08 5.10L11.08 5.10Q11.90 4.61 12.95 4.61L12.95 4.61ZM12.95 5.39L12.95 5.39Q11.86 5.39 11.11 6.12L11.11 6.12L11.11 6.12Q10.36 6.85 10.22 8.04L10.22 8.04L15.67 8.04L15.67 8.04Q15.57 6.85 14.83 6.12L14.83 6.12L14.83 6.12Q14.08 5.39 12.95 5.39L12.95 5.39ZM21.76 11.48L21.76 11.48Q21.95 11.48 22.07 11.60L22.07 11.60L22.07 11.60Q22.19 11.72 22.19 11.91L22.19 11.91L22.19 11.91Q22.19 12.10 22.07 12.21L22.07 12.21L22.07 12.21Q21.95 12.33 21.76 12.33L21.76 12.33L21.43 12.33L21.43 12.33Q20.66 12.33 20.06 11.98L20.06 11.98L20.06 11.98Q19.46 11.63 19.12 11.03L19.12 11.03L19.12 11.03Q18.79 10.42 18.79 9.65L18.79 9.65L18.79 5.71L17.70 5.71L17.70 5.71Q17.53 5.71 17.42 5.61L17.42 5.61L17.42 5.61Q17.32 5.50 17.32 5.33L17.32 5.33L17.32 5.33Q17.32 5.17 17.42 5.06L17.42 5.06L17.42 5.06Q17.53 4.96 17.70 4.96L17.70 4.96L18.79 4.96L18.79 2.67L18.79 2.67Q18.79 2.48 18.91 2.36L18.91 2.36L18.91 2.36Q19.03 2.24 19.21 2.24L19.21 2.24L19.21 2.24Q19.40 2.24 19.52 2.36L19.52 2.36L19.52 2.36Q19.64 2.48 19.64 2.67L19.64 2.67L19.64 4.96L21.49 4.96L21.49 4.96Q21.66 4.96 21.76 5.06L21.76 5.06L21.76 5.06Q21.87 5.17 21.87 5.33L21.87 5.33L21.87 5.33Q21.87 5.50 21.76 5.61L21.76 5.61L21.76 5.61Q21.66 5.71 21.49 5.71L21.49 5.71L19.64 5.71L19.64 9.65L19.64 9.65Q19.64 10.46 20.15 10.97L20.15 10.97L20.15 10.97Q20.65 11.48 21.45 11.48L21.45 11.48L21.76 11.48ZM27.19 4.59L27.19 4.59Q28.25 4.59 28.25 5.05L28.25 5.05L28.25 5.05Q28.25 5.12 28.24 5.17L28.24 5.17L28.24 5.17Q28.20 5.32 28.11 5.38L28.11 5.38L28.11 5.38Q28.01 5.45 27.86 5.45L27.86 5.45L27.86 5.45Q27.73 5.45 27.53 5.42L27.53 5.42L27.53 5.42Q27.33 5.39 27.19 5.39L27.19 5.39L27.19 5.39Q26.49 5.39 25.94 5.68L25.94 5.68L25.94 5.68Q25.40 5.98 25.09 6.50L25.09 6.50L25.09 6.50Q24.78 7.01 24.78 7.66L24.78 7.66L24.78 11.91L24.78 11.91Q24.78 12.10 24.67 12.21L24.67 12.21L24.67 12.21Q24.56 12.33 24.36 12.33L24.36 12.33L24.36 12.33Q24.18 12.33 24.06 12.21L24.06 12.21L24.06 12.21Q23.94 12.10 23.94 11.91L23.94 11.91L23.94 5.10L23.94 5.10Q23.94 4.90 24.06 4.79L24.06 4.79L24.06 4.79Q24.18 4.68 24.36 4.68L24.36 4.68L24.36 4.68Q24.56 4.68 24.67 4.79L24.67 4.79L24.67 4.79Q24.78 4.90 24.78 5.10L24.78 5.10L24.78 5.96L24.78 5.96Q25.19 5.32 25.82 4.96L25.82 4.96L25.82 4.96Q26.45 4.59 27.19 4.59L27.19 4.59ZM33.57 4.59L33.57 4.59Q34.66 4.59 35.56 5.10L35.56 5.10L35.56 5.10Q36.46 5.61 36.97 6.51L36.97 6.51L36.97 6.51Q37.48 7.41 37.48 8.51L37.48 8.51L37.48 8.51Q37.48 9.60 36.97 10.50L36.97 10.50L36.97 10.50Q36.46 11.40 35.56 11.91L35.56 11.91L35.56 11.91Q34.66 12.42 33.57 12.42L33.57 12.42L33.57 12.42Q32.47 12.42 31.57 11.91L31.57 11.91L31.57 11.91Q30.67 11.40 30.16 10.50L30.16 10.50L30.16 10.50Q29.65 9.60 29.65 8.51L29.65 8.51L29.65 8.51Q29.65 7.41 30.16 6.51L30.16 6.51L30.16 6.51Q30.67 5.61 31.57 5.10L31.57 5.10L31.57 5.10Q32.47 4.59 33.57 4.59L33.57 4.59ZM33.57 5.38L33.57 5.38Q32.70 5.38 32.00 5.79L32.00 5.79L32.00 5.79Q31.30 6.20 30.90 6.92L30.90 6.92L30.90 6.92Q30.49 7.63 30.49 8.51L30.49 8.51L30.49 8.51Q30.49 9.39 30.90 10.11L30.90 10.11L30.90 10.11Q31.30 10.82 32.00 11.23L32.00 11.23L32.00 11.23Q32.70 11.63 33.57 11.63L33.57 11.63L33.57 11.63Q34.44 11.63 35.14 11.23L35.14 11.23L35.14 11.23Q35.84 10.82 36.24 10.11L36.24 10.11L36.24 10.11Q36.64 9.39 36.64 8.51L36.64 8.51L36.64 8.51Q36.64 7.63 36.24 6.92L36.24 6.92L36.24 6.92Q35.84 6.20 35.14 5.79L35.14 5.79L35.14 5.79Q34.44 5.38 33.57 5.38L33.57 5.38ZM42.20 4.59L42.20 4.59Q43.96 4.59 44.87 5.85L44.87 5.85L44.87 5.85Q44.95 5.95 44.95 6.09L44.95 6.09L44.95 6.09Q44.95 6.29 44.73 6.41L44.73 6.41L44.73 6.41Q44.59 6.47 44.52 6.47L44.52 6.47L44.52 6.47Q44.31 6.47 44.17 6.29L44.17 6.29L44.17 6.29Q43.46 5.38 42.17 5.38L42.17 5.38L42.17 5.38Q41.31 5.38 40.81 5.75L40.81 5.75L40.81 5.75Q40.31 6.12 40.31 6.66L40.31 6.66L40.31 6.66Q40.31 7.22 40.79 7.56L40.79 7.56L40.79 7.56Q41.27 7.90 42.41 8.06L42.41 8.06L42.41 8.06Q43.89 8.27 44.54 8.86L44.54 8.86L44.54 8.86Q45.19 9.44 45.19 10.26L45.19 10.26L45.19 10.26Q45.19 10.91 44.78 11.40L44.78 11.40L44.78 11.40Q44.37 11.89 43.68 12.15L43.68 12.15L43.68 12.15Q42.99 12.42 42.18 12.42L42.18 12.42L42.18 12.42Q41.37 12.42 40.60 12.13L40.60 12.13L40.60 12.13Q39.83 11.84 39.33 11.26L39.33 11.26L39.33 11.26Q39.23 11.14 39.23 11.00L39.23 11.00L39.23 11.00Q39.23 10.81 39.41 10.68L39.41 10.68L39.41 10.68Q39.49 10.61 39.65 10.61L39.65 10.61L39.65 10.61Q39.84 10.61 39.97 10.77L39.97 10.77L39.97 10.77Q40.67 11.62 42.22 11.62L42.22 11.62L42.22 11.62Q43.33 11.62 43.85 11.23L43.85 11.23L43.85 11.23Q44.38 10.84 44.38 10.22L44.38 10.22L44.38 10.22Q44.38 9.11 42.24 8.81L42.24 8.81L42.24 8.81Q40.88 8.61 40.19 8.06L40.19 8.06L40.19 8.06Q39.49 7.52 39.49 6.75L39.49 6.75L39.49 6.75Q39.49 5.73 40.24 5.16L40.24 5.16L40.24 5.16Q40.99 4.59 42.20 4.59L42.20 4.59ZM50.99 4.59L50.99 4.59Q52.09 4.59 52.99 5.10L52.99 5.10L52.99 5.10Q53.89 5.61 54.40 6.51L54.40 6.51L54.40 6.51Q54.91 7.41 54.91 8.51L54.91 8.51L54.91 8.51Q54.91 9.60 54.40 10.50L54.40 10.50L54.40 10.50Q53.89 11.40 52.99 11.91L52.99 11.91L52.99 11.91Q52.09 12.42 50.99 12.42L50.99 12.42L50.99 12.42Q49.99 12.42 49.19 11.99L49.19 11.99L49.19 11.99Q48.38 11.56 47.92 10.82L47.92 10.82L47.92 15.19L47.92 15.19Q47.92 15.39 47.81 15.50L47.81 15.50L47.81 15.50Q47.70 15.61 47.50 15.61L47.50 15.61L47.50 15.61Q47.32 15.61 47.20 15.50L47.20 15.50L47.20 15.50Q47.08 15.39 47.08 15.19L47.08 15.19L47.08 8.46L47.08 8.43L47.08 8.43Q47.10 7.35 47.61 6.47L47.61 6.47L47.61 6.47Q48.13 5.59 49.02 5.09L49.02 5.09L49.02 5.09Q49.91 4.59 50.99 4.59L50.99 4.59ZM50.99 11.63L50.99 11.63Q51.86 11.63 52.56 11.23L52.56 11.23L52.56 11.23Q53.26 10.82 53.66 10.11L53.66 10.11L53.66 10.11Q54.07 9.39 54.07 8.51L54.07 8.51L54.07 8.51Q54.07 7.63 53.66 6.92L53.66 6.92L53.66 6.92Q53.26 6.20 52.56 5.79L52.56 5.79L52.56 5.79Q51.86 5.38 50.99 5.38L50.99 5.38L50.99 5.38Q50.12 5.38 49.42 5.79L49.42 5.79L49.42 5.79Q48.72 6.20 48.32 6.92L48.32 6.92L48.32 6.92Q47.92 7.63 47.92 8.51L47.92 8.51L47.92 8.51Q47.92 9.39 48.32 10.11L48.32 10.11L48.32 10.11Q48.72 10.82 49.42 11.23L49.42 11.23L49.42 11.23Q50.12 11.63 50.99 11.63L50.99 11.63ZM60.19 4.61L60.19 4.61Q61.21 4.61 62.01 5.09L62.01 5.09L62.01 5.09Q62.82 5.57 63.27 6.43L63.27 6.43L63.27 6.43Q63.71 7.28 63.71 8.37L63.71 8.37L63.71 8.37Q63.71 8.55 63.60 8.66L63.60 8.66L63.60 8.66Q63.49 8.76 63.31 8.76L63.31 8.76L57.44 8.76L57.44 8.76Q57.48 9.59 57.88 10.24L57.88 10.24L57.88 10.24Q58.27 10.89 58.93 11.26L58.93 11.26L58.93 11.26Q59.58 11.62 60.40 11.62L60.40 11.62L60.40 11.62Q60.94 11.62 61.49 11.43L61.49 11.43L61.49 11.43Q62.05 11.24 62.37 10.93L62.37 10.93L62.37 10.93Q62.51 10.82 62.66 10.82L62.66 10.82L62.66 10.82Q62.82 10.82 62.92 10.91L62.92 10.91L62.92 10.91Q63.07 11.03 63.07 11.20L63.07 11.20L63.07 11.20Q63.07 11.34 62.94 11.47L62.94 11.47L62.94 11.47Q62.50 11.87 61.77 12.14L61.77 12.14L61.77 12.14Q61.05 12.40 60.40 12.40L60.40 12.40L60.40 12.40Q59.29 12.40 58.43 11.91L58.43 11.91L58.43 11.91Q57.57 11.41 57.08 10.52L57.08 10.52L57.08 10.52Q56.59 9.63 56.59 8.51L56.59 8.51L56.59 8.51Q56.59 7.38 57.04 6.49L57.04 6.49L57.04 6.49Q57.50 5.60 58.32 5.10L58.32 5.10L58.32 5.10Q59.14 4.61 60.19 4.61L60.19 4.61ZM60.19 5.39L60.19 5.39Q59.09 5.39 58.34 6.12L58.34 6.12L58.34 6.12Q57.60 6.85 57.46 8.04L57.46 8.04L62.90 8.04L62.90 8.04Q62.80 6.85 62.06 6.12L62.06 6.12L62.06 6.12Q61.32 5.39 60.19 5.39L60.19 5.39ZM68.71 4.61L68.71 4.61Q69.61 4.61 70.35 4.96L70.35 4.96L70.35 4.96Q71.09 5.31 71.64 5.99L71.64 5.99L71.64 5.99Q71.74 6.13 71.74 6.23L71.74 6.23L71.74 6.23Q71.74 6.43 71.54 6.54L71.54 6.54L71.54 6.54Q71.44 6.62 71.32 6.62L71.32 6.62L71.32 6.62Q71.12 6.62 70.99 6.45L70.99 6.45L70.99 6.45Q70.10 5.39 68.71 5.39L68.71 5.39L68.71 5.39Q67.90 5.39 67.27 5.79L67.27 5.79L67.27 5.79Q66.64 6.19 66.30 6.90L66.30 6.90L66.30 6.90Q65.95 7.62 65.95 8.51L65.95 8.51L65.95 8.51Q65.95 9.39 66.33 10.11L66.33 10.11L66.33 10.11Q66.71 10.82 67.38 11.23L67.38 11.23L67.38 11.23Q68.05 11.63 68.92 11.63L68.92 11.63L68.92 11.63Q70.15 11.63 70.90 10.95L70.90 10.95L70.90 10.95Q71.02 10.82 71.19 10.82L71.19 10.82L71.19 10.82Q71.34 10.82 71.44 10.92L71.44 10.92L71.44 10.92Q71.58 11.05 71.58 11.23L71.58 11.23L71.58 11.23Q71.58 11.38 71.47 11.48L71.47 11.48L71.47 11.48Q70.98 11.93 70.32 12.17L70.32 12.17L70.32 12.17Q69.66 12.42 68.92 12.42L68.92 12.42L68.92 12.42Q67.84 12.42 66.98 11.91L66.98 11.91L66.98 11.91Q66.11 11.40 65.61 10.50L65.61 10.50L65.61 10.50Q65.11 9.60 65.11 8.51L65.11 8.51L65.11 8.51Q65.11 7.41 65.58 6.52L65.58 6.52L65.58 6.52Q66.04 5.63 66.86 5.12L66.86 5.12L66.86 5.12Q67.69 4.61 68.71 4.61L68.71 4.61ZM77.29 11.48L77.29 11.48Q77.49 11.48 77.61 11.60L77.61 11.60L77.61 11.60Q77.73 11.72 77.73 11.91L77.73 11.91L77.73 11.91Q77.73 12.10 77.61 12.21L77.61 12.21L77.61 12.21Q77.49 12.33 77.29 12.33L77.29 12.33L76.97 12.33L76.97 12.33Q76.20 12.33 75.60 11.98L75.60 11.98L75.60 11.98Q75.00 11.63 74.66 11.03L74.66 11.03L74.66 11.03Q74.33 10.42 74.33 9.65L74.33 9.65L74.33 5.71L73.23 5.71L73.23 5.71Q73.07 5.71 72.96 5.61L72.96 5.61L72.96 5.61Q72.86 5.50 72.86 5.33L72.86 5.33L72.86 5.33Q72.86 5.17 72.96 5.06L72.96 5.06L72.96 5.06Q73.07 4.96 73.23 4.96L73.23 4.96L74.33 4.96L74.33 2.67L74.33 2.67Q74.33 2.48 74.44 2.36L74.44 2.36L74.44 2.36Q74.56 2.24 74.75 2.24L74.75 2.24L74.75 2.24Q74.94 2.24 75.06 2.36L75.06 2.36L75.06 2.36Q75.18 2.48 75.18 2.67L75.18 2.67L75.18 4.96L77.03 4.96L77.03 4.96Q77.20 4.96 77.30 5.06L77.30 5.06L77.30 5.06Q77.41 5.17 77.41 5.33L77.41 5.33L77.41 5.33Q77.41 5.50 77.30 5.61L77.30 5.61L77.30 5.61Q77.20 5.71 77.03 5.71L77.03 5.71L75.18 5.71L75.18 9.65L75.18 9.65Q75.18 10.46 75.68 10.97L75.68 10.97L75.68 10.97Q76.19 11.48 76.99 11.48L76.99 11.48L77.29 11.48ZM79.76 5.10L79.76 5.10Q79.76 4.90 79.88 4.79L79.88 4.79L79.88 4.79Q80.00 4.68 80.18 4.68L80.18 4.68L80.18 4.68Q80.37 4.68 80.49 4.79L80.49 4.79L80.49 4.79Q80.60 4.90 80.60 5.10L80.60 5.10L80.60 11.91L80.60 11.91Q80.60 12.10 80.49 12.21L80.49 12.21L80.49 12.21Q80.37 12.33 80.18 12.33L80.18 12.33L80.18 12.33Q80.00 12.33 79.88 12.21L79.88 12.21L79.88 12.21Q79.76 12.10 79.76 11.91L79.76 11.91L79.76 5.10ZM80.18 1.76L80.18 1.76Q80.44 1.76 80.63 1.93L80.63 1.93L80.63 1.93Q80.82 2.10 80.82 2.41L80.82 2.41L80.82 2.41Q80.82 2.69 80.63 2.88L80.63 2.88L80.63 2.88Q80.44 3.07 80.16 3.07L80.16 3.07L80.16 3.07Q79.88 3.07 79.70 2.88L79.70 2.88L79.70 2.88Q79.52 2.69 79.52 2.41L79.52 2.41L79.52 2.41Q79.52 2.10 79.72 1.93L79.72 1.93L79.72 1.93Q79.91 1.76 80.18 1.76L80.18 1.76ZM89.42 4.69L89.42 4.69Q89.66 4.80 89.66 5.05L89.66 5.05L89.66 5.05Q89.66 5.15 89.63 5.21L89.63 5.21L86.48 12.05L86.48 12.05Q86.34 12.35 86.03 12.35L86.03 12.35L86.03 12.35Q85.90 12.35 85.80 12.27L85.80 12.27L85.80 12.27Q85.69 12.19 85.64 12.05L85.64 12.05L82.45 5.22L82.45 5.22Q82.42 5.17 82.42 5.07L82.42 5.07L82.42 5.07Q82.42 4.82 82.66 4.70L82.66 4.70L82.66 4.70Q82.74 4.66 82.82 4.66L82.82 4.66L82.82 4.66Q83.06 4.66 83.17 4.90L83.17 4.90L86.04 11.12L88.87 4.89L88.87 4.89Q88.98 4.65 89.24 4.65L89.24 4.65L89.24 4.65Q89.33 4.65 89.42 4.69L89.42 4.69ZM94.37 4.61L94.37 4.61Q95.40 4.61 96.20 5.09L96.20 5.09L96.20 5.09Q97.01 5.57 97.45 6.43L97.45 6.43L97.45 6.43Q97.90 7.28 97.90 8.37L97.90 8.37L97.90 8.37Q97.90 8.55 97.79 8.66L97.79 8.66L97.79 8.66Q97.68 8.76 97.50 8.76L97.50 8.76L91.63 8.76L91.63 8.76Q91.67 9.59 92.06 10.24L92.06 10.24L92.06 10.24Q92.46 10.89 93.11 11.26L93.11 11.26L93.11 11.26Q93.77 11.62 94.58 11.62L94.58 11.62L94.58 11.62Q95.13 11.62 95.68 11.43L95.68 11.43L95.68 11.43Q96.24 11.24 96.56 10.93L96.56 10.93L96.56 10.93Q96.70 10.82 96.85 10.82L96.85 10.82L96.85 10.82Q97.01 10.82 97.10 10.91L97.10 10.91L97.10 10.91Q97.26 11.03 97.26 11.20L97.26 11.20L97.26 11.20Q97.26 11.34 97.13 11.47L97.13 11.47L97.13 11.47Q96.68 11.87 95.96 12.14L95.96 12.14L95.96 12.14Q95.24 12.40 94.58 12.40L94.58 12.40L94.58 12.40Q93.48 12.40 92.62 11.91L92.62 11.91L92.62 11.91Q91.76 11.41 91.27 10.52L91.27 10.52L91.27 10.52Q90.78 9.63 90.78 8.51L90.78 8.51L90.78 8.51Q90.78 7.38 91.23 6.49L91.23 6.49L91.23 6.49Q91.69 5.60 92.50 5.10L92.50 5.10L92.50 5.10Q93.32 4.61 94.37 4.61L94.37 4.61ZM94.37 5.39L94.37 5.39Q93.28 5.39 92.53 6.12L92.53 6.12L92.53 6.12Q91.78 6.85 91.64 8.04L91.64 8.04L97.09 8.04L97.09 8.04Q96.99 6.85 96.25 6.12L96.25 6.12L96.25 6.12Q95.51 5.39 94.37 5.39L94.37 5.39ZM111.08 1.40L111.08 1.40Q111.24 1.40 111.35 1.50L111.35 1.50L111.35 1.50Q111.45 1.61 111.45 1.78L111.45 1.78L111.45 1.78Q111.45 1.95 111.35 2.05L111.35 2.05L111.35 2.05Q111.24 2.16 111.08 2.16L111.08 2.16L107.53 2.16L107.53 11.91L107.53 11.91Q107.53 12.10 107.41 12.21L107.41 12.21L107.41 12.21Q107.30 12.33 107.11 12.33L107.11 12.33L107.11 12.33Q106.93 12.33 106.81 12.21L106.81 12.21L106.81 12.21Q106.69 12.10 106.69 11.91L106.69 11.91L106.69 2.16L103.15 2.16L103.15 2.16Q102.98 2.16 102.88 2.05L102.88 2.05L102.88 2.05Q102.77 1.95 102.77 1.78L102.77 1.78L102.77 1.78Q102.77 1.61 102.88 1.50L102.88 1.50L102.88 1.50Q102.98 1.40 103.15 1.40L103.15 1.40L111.08 1.40ZM116.42 4.59L116.42 4.59Q117.52 4.59 118.41 5.10L118.41 5.10L118.41 5.10Q119.31 5.61 119.82 6.51L119.82 6.51L119.82 6.51Q120.33 7.41 120.33 8.51L120.33 8.51L120.33 8.51Q120.33 9.60 119.82 10.50L119.82 10.50L119.82 10.50Q119.31 11.40 118.41 11.91L118.41 11.91L118.41 11.91Q117.52 12.42 116.42 12.42L116.42 12.42L116.42 12.42Q115.32 12.42 114.42 11.91L114.42 11.91L114.42 11.91Q113.53 11.40 113.01 10.50L113.01 10.50L113.01 10.50Q112.50 9.60 112.50 8.51L112.50 8.51L112.50 8.51Q112.50 7.41 113.01 6.51L113.01 6.51L113.01 6.51Q113.53 5.61 114.42 5.10L114.42 5.10L114.42 5.10Q115.32 4.59 116.42 4.59L116.42 4.59ZM116.42 5.38L116.42 5.38Q115.56 5.38 114.86 5.79L114.86 5.79L114.86 5.79Q114.16 6.20 113.75 6.92L113.75 6.92L113.75 6.92Q113.34 7.63 113.34 8.51L113.34 8.51L113.34 8.51Q113.34 9.39 113.75 10.11L113.75 10.11L113.75 10.11Q114.16 10.82 114.86 11.23L114.86 11.23L114.86 11.23Q115.56 11.63 116.42 11.63L116.42 11.63L116.42 11.63Q117.29 11.63 117.99 11.23L117.99 11.23L117.99 11.23Q118.69 10.82 119.09 10.11L119.09 10.11L119.09 10.11Q119.49 9.39 119.49 8.51L119.49 8.51L119.49 8.51Q119.49 7.63 119.09 6.92L119.09 6.92L119.09 6.92Q118.69 6.20 117.99 5.79L117.99 5.79L117.99 5.79Q117.29 5.38 116.42 5.38L116.42 5.38ZM125.93 4.59L125.93 4.59Q127.02 4.59 127.92 5.10L127.92 5.10L127.92 5.10Q128.81 5.61 129.32 6.51L129.32 6.51L129.32 6.51Q129.84 7.41 129.84 8.51L129.84 8.51L129.84 8.51Q129.84 9.60 129.32 10.50L129.32 10.50L129.32 10.50Q128.81 11.40 127.92 11.91L127.92 11.91L127.92 11.91Q127.02 12.42 125.93 12.42L125.93 12.42L125.93 12.42Q124.82 12.42 123.93 11.91L123.93 11.91L123.93 11.91Q123.03 11.40 122.52 10.50L122.52 10.50L122.52 10.50Q122.01 9.60 122.01 8.51L122.01 8.51L122.01 8.51Q122.01 7.41 122.52 6.51L122.52 6.51L122.52 6.51Q123.03 5.61 123.93 5.10L123.93 5.10L123.93 5.10Q124.82 4.59 125.93 4.59L125.93 4.59ZM125.93 5.38L125.93 5.38Q125.06 5.38 124.36 5.79L124.36 5.79L124.36 5.79Q123.66 6.20 123.26 6.92L123.26 6.92L123.26 6.92Q122.85 7.63 122.85 8.51L122.85 8.51L122.85 8.51Q122.85 9.39 123.26 10.11L123.26 10.11L123.26 10.11Q123.66 10.82 124.36 11.23L124.36 11.23L124.36 11.23Q125.06 11.63 125.93 11.63L125.93 11.63L125.93 11.63Q126.80 11.63 127.50 11.23L127.50 11.23L127.50 11.23Q128.20 10.82 128.60 10.11L128.60 10.11L128.60 10.11Q129.00 9.39 129.00 8.51L129.00 8.51L129.00 8.51Q129.00 7.63 128.60 6.92L128.60 6.92L128.60 6.92Q128.20 6.20 127.50 5.79L127.50 5.79L127.50 5.79Q126.80 5.38 125.93 5.38L125.93 5.38ZM131.66 1.82L131.66 1.82Q131.66 1.62 131.77 1.51L131.77 1.51L131.77 1.51Q131.89 1.40 132.08 1.40L132.08 1.40L132.08 1.40Q132.27 1.40 132.38 1.51L132.38 1.51L132.38 1.51Q132.50 1.62 132.50 1.82L132.50 1.82L132.50 10.02L132.50 10.02Q132.50 10.67 132.77 11.08L132.77 11.08L132.77 11.08Q133.04 11.49 133.48 11.49L133.48 11.49L133.83 11.49L133.83 11.49Q133.98 11.49 134.08 11.61L134.08 11.61L134.08 11.61Q134.18 11.72 134.18 11.91L134.18 11.91L134.18 11.91Q134.18 12.10 134.06 12.21L134.06 12.21L134.06 12.21Q133.95 12.33 133.76 12.33L133.76 12.33L133.48 12.33L133.48 12.33Q132.68 12.33 132.17 11.69L132.17 11.69L132.17 11.69Q131.66 11.05 131.66 10.02L131.66 10.02L131.66 1.82ZM141.50 11.72L141.50 11.72Q141.60 11.83 141.60 11.97L141.60 11.97L141.60 11.97Q141.60 12.12 141.44 12.26L141.44 12.26L141.44 12.26Q141.30 12.38 141.19 12.38L141.19 12.38L141.19 12.38Q141.02 12.38 140.90 12.21L140.90 12.21L137.86 8.50L136.56 9.69L136.56 11.91L136.56 11.91Q136.56 12.10 136.44 12.21L136.44 12.21L136.44 12.21Q136.33 12.33 136.14 12.33L136.14 12.33L136.14 12.33Q135.95 12.33 135.83 12.21L135.83 12.21L135.83 12.21Q135.72 12.10 135.72 11.91L135.72 11.91L135.72 1.82L135.72 1.82Q135.72 1.62 135.83 1.51L135.83 1.51L135.83 1.51Q135.95 1.40 136.14 1.40L136.14 1.40L136.14 1.40Q136.33 1.40 136.44 1.51L136.44 1.51L136.44 1.51Q136.56 1.62 136.56 1.82L136.56 1.82L136.56 8.67L140.90 4.72L140.90 4.72Q141.04 4.61 141.16 4.61L141.16 4.61L141.16 4.61Q141.30 4.61 141.43 4.75L141.43 4.75L141.43 4.75Q141.55 4.87 141.55 5.01L141.55 5.01L141.55 5.01Q141.55 5.15 141.41 5.28L141.41 5.28L138.45 7.98L141.50 11.72ZM144.03 5.10L144.03 5.10Q144.03 4.90 144.15 4.79L144.15 4.79L144.15 4.79Q144.27 4.68 144.45 4.68L144.45 4.68L144.45 4.68Q144.65 4.68 144.76 4.79L144.76 4.79L144.76 4.79Q144.87 4.90 144.87 5.10L144.87 5.10L144.87 11.91L144.87 11.91Q144.87 12.10 144.76 12.21L144.76 12.21L144.76 12.21Q144.65 12.33 144.45 12.33L144.45 12.33L144.45 12.33Q144.27 12.33 144.15 12.21L144.15 12.21L144.15 12.21Q144.03 12.10 144.03 11.91L144.03 11.91L144.03 5.10ZM144.45 1.76L144.45 1.76Q144.72 1.76 144.91 1.93L144.91 1.93L144.91 1.93Q145.10 2.10 145.10 2.41L145.10 2.41L145.10 2.41Q145.10 2.69 144.91 2.88L144.91 2.88L144.91 2.88Q144.72 3.07 144.44 3.07L144.44 3.07L144.44 3.07Q144.16 3.07 143.98 2.88L143.98 2.88L143.98 2.88Q143.79 2.69 143.79 2.41L143.79 2.41L143.79 2.41Q143.79 2.10 143.99 1.93L143.99 1.93L143.99 1.93Q144.19 1.76 144.45 1.76L144.45 1.76ZM151.13 11.48L151.13 11.48Q151.33 11.48 151.44 11.60L151.44 11.60L151.44 11.60Q151.56 11.72 151.56 11.91L151.56 11.91L151.56 11.91Q151.56 12.10 151.44 12.21L151.44 12.21L151.44 12.21Q151.33 12.33 151.13 12.33L151.13 12.33L150.81 12.33L150.81 12.33Q150.04 12.33 149.44 11.98L149.44 11.98L149.44 11.98Q148.83 11.63 148.50 11.03L148.50 11.03L148.50 11.03Q148.16 10.42 148.16 9.65L148.16 9.65L148.16 5.71L147.07 5.71L147.07 5.71Q146.90 5.71 146.80 5.61L146.80 5.61L146.80 5.61Q146.69 5.50 146.69 5.33L146.69 5.33L146.69 5.33Q146.69 5.17 146.80 5.06L146.80 5.06L146.80 5.06Q146.90 4.96 147.07 4.96L147.07 4.96L148.16 4.96L148.16 2.67L148.16 2.67Q148.16 2.48 148.28 2.36L148.28 2.36L148.28 2.36Q148.40 2.24 148.58 2.24L148.58 2.24L148.58 2.24Q148.78 2.24 148.90 2.36L148.90 2.36L148.90 2.36Q149.02 2.48 149.02 2.67L149.02 2.67L149.02 4.96L150.86 4.96L150.86 4.96Q151.03 4.96 151.14 5.06L151.14 5.06L151.14 5.06Q151.24 5.17 151.24 5.33L151.24 5.33L151.24 5.33Q151.24 5.50 151.14 5.61L151.14 5.61L151.14 5.61Q151.03 5.71 150.86 5.71L150.86 5.71L149.02 5.71L149.02 9.65L149.02 9.65Q149.02 10.46 149.52 10.97L149.52 10.97L149.52 10.97Q150.02 11.48 150.82 11.48L150.82 11.48L151.13 11.48Z"></path></g><defs data-v-fde0c5aa=""><linearGradient data-v-fde0c5aa="" gradientTransform="rotate(25)" id="2f420ac5-bcc4-4a13-8160-4d71df11e436" x1="0%" y1="0%" x2="100%" y2="0%"><stop data-v-fde0c5aa="" offset="0%" stop-color="#f32d28" stop-opacity="1"></stop><stop data-v-fde0c5aa="" offset="100%" stop-color="#B82421" stop-opacity="1"></stop></linearGradient></defs><g data-v-fde0c5aa="" id="4a5c266f-0b2b-4db8-8d1a-475aea86c65a" stroke="none" fill="url(#2f420ac5-bcc4-4a13-8160-4d71df11e436)" transform="matrix(0.5789207556363468,0,0,0.5789207556363468,123.3699342660496,102.54012316190754)"><path d="M57.542 25.78a22.733 22.733 0 0 1 7.86 7.861 13.334 13.334 0 0 1 5.279-1.721 28.222 28.222 0 0 0-11.419-11.419 13.306 13.306 0 0 1-1.72 5.279zM51.1 23.186a6.533 6.533 0 0 0 1.438-4.09 6.59 6.59 0 0 0-.113-1.194A28.066 28.066 0 0 0 46 17.159c-2.209 0-4.36.258-6.423.744-.073.391-.114.79-.114 1.194 0 1.514.522 2.949 1.438 4.09 1.64-.38 3.346-.588 5.1-.588s3.459.207 5.099.587zM40.9 67.18a6.535 6.535 0 0 0-1.438 4.09c0 .404.042.803.114 1.194 2.063.485 4.214.744 6.423.744 2.21 0 4.36-.259 6.424-.744a6.53 6.53 0 0 0-1.325-5.284c-1.64.381-3.346.588-5.1.588s-3.457-.207-5.098-.588zM73.281 38.76a6.51 6.51 0 0 0-1.194-.114 6.527 6.527 0 0 0-4.09 1.438c.38 1.64.588 3.346.588 5.1 0 1.754-.208 3.459-.588 5.1a6.533 6.533 0 0 0 4.09 1.438c.404 0 .803-.041 1.194-.114.485-2.063.743-4.214.743-6.423s-.257-4.362-.743-6.425zM34.458 64.586a22.744 22.744 0 0 1-7.861-7.861 13.312 13.312 0 0 1-5.279 1.721 28.225 28.225 0 0 0 11.419 11.42 13.328 13.328 0 0 1 1.721-5.28zM65.402 56.725a22.733 22.733 0 0 1-7.86 7.861 13.334 13.334 0 0 1 1.721 5.279 28.225 28.225 0 0 0 11.419-11.42 13.32 13.32 0 0 1-5.28-1.72zM23.415 45.183c0-1.754.208-3.459.588-5.1a6.533 6.533 0 0 0-4.09-1.438 6.59 6.59 0 0 0-1.194.114c-.485 2.063-.744 4.214-.744 6.423s.258 4.36.744 6.423c.391.072.79.114 1.194.114a6.527 6.527 0 0 0 4.09-1.438 22.528 22.528 0 0 1-.588-5.098zM26.597 33.642a22.744 22.744 0 0 1 7.861-7.861 13.328 13.328 0 0 1-1.721-5.279 28.216 28.216 0 0 0-11.419 11.419c1.884.198 3.678.793 5.279 1.721z"></path><g><path d="M65.73 41.761a7.216 7.216 0 0 1 6.356-3.795c1.544 0 2.976.489 4.15 1.318a8.043 8.043 0 0 1 5.511-2.176l.079.002a12.633 12.633 0 0 0-9.74-4.584 12.655 12.655 0 0 0-11.144 6.651 2.721 2.721 0 0 0 4.788 2.584zM81.827 53.256l-.079.002a8.045 8.045 0 0 1-5.511-2.176 7.215 7.215 0 0 1-10.506-2.477 2.721 2.721 0 0 0-4.788 2.584 12.651 12.651 0 0 0 11.144 6.65 12.63 12.63 0 0 0 9.74-4.583z"></path><circle cx="81.748" cy="45.183" r="6.751"></circle><g><path d="M26.27 48.604a7.217 7.217 0 0 1-6.356 3.796 7.173 7.173 0 0 1-4.15-1.318 8.043 8.043 0 0 1-5.511 2.176l-.079-.002a12.633 12.633 0 0 0 9.74 4.584c4.658 0 8.928-2.548 11.143-6.65a2.72 2.72 0 0 0-4.787-2.586zM10.173 37.11l.079-.002c2.131 0 4.068.827 5.511 2.176a7.168 7.168 0 0 1 4.15-1.318 7.216 7.216 0 0 1 6.356 3.795 2.72 2.72 0 0 0 4.787-2.585 12.65 12.65 0 0 0-20.883-2.066z"></path><circle cx="10.251" cy="45.183" r="6.751"></circle></g><g><path d="M42.578 25.453a7.218 7.218 0 0 1-3.795-6.356c0-1.544.489-2.976 1.318-4.15a8.043 8.043 0 0 1-2.176-5.511l.002-.079a12.633 12.633 0 0 0-4.584 9.74c0 4.658 2.549 8.928 6.651 11.143a2.72 2.72 0 1 0 2.584-4.787zM54.072 9.356l.002.079a8.042 8.042 0 0 1-2.175 5.511 7.175 7.175 0 0 1 1.318 4.15 7.215 7.215 0 0 1-3.796 6.356 2.722 2.722 0 0 0 1.295 5.114c.437 0 .879-.105 1.29-.327a12.652 12.652 0 0 0 6.65-11.143 12.63 12.63 0 0 0-4.584-9.74z"></path><circle cx="46" cy="9.435" r="6.752"></circle><g><path d="M49.422 64.913a7.218 7.218 0 0 1 3.796 6.356A7.176 7.176 0 0 1 51.9 75.42a8.04 8.04 0 0 1 2.173 5.59 12.653 12.653 0 0 0-2.066-20.884 2.718 2.718 0 0 0-3.685 1.102 2.717 2.717 0 0 0 1.1 3.685zM37.927 81.011l-.002-.079c0-2.131.827-4.068 2.176-5.511a7.171 7.171 0 0 1-1.318-4.151 7.218 7.218 0 0 1 3.795-6.356 2.72 2.72 0 1 0-2.585-4.787 12.65 12.65 0 0 0-6.651 11.143 12.64 12.64 0 0 0 4.585 9.741z"></path><circle cx="46" cy="80.932" r="6.752"></circle></g></g></g></g><!----></svg>